<svg width="41" height="37" viewBox="0 0 41 37" fill="none" xmlns="http://www.w3.org/2000/svg">
<path d="M35.926 23.125H15.0598L15.5257 25.4375H34.6318C35.7281 25.4375 36.5406 26.471 36.2977 27.5563L35.905 29.3106C37.2354 29.9662 38.1528 31.3509 38.1528 32.9531C38.1528 35.208 36.3363 37.0321 34.108 36.9996C31.9852 36.9686 30.2394 35.2196 30.1821 33.0649C30.1507 31.8879 30.6152 30.8211 31.3781 30.0624H16.4552C17.1939 30.7971 17.6528 31.8204 17.6528 32.9531C17.6528 35.2521 15.7645 37.1034 13.4766 36.9955C11.4451 36.8998 9.79295 35.2333 9.68618 33.1714C9.60375 31.5791 10.429 30.1757 11.6829 29.4435L6.68264 4.625H1.70833C0.764835 4.625 0 3.84851 0 2.89062V1.73438C0 0.776494 0.764835 0 1.70833 0H9.0064C9.81793 0 10.5174 0.579643 10.6801 1.38678L11.3325 4.625H39.291C40.3872 4.625 41.1997 5.65847 40.9568 6.74376L37.5919 21.775C37.4151 22.5647 36.7237 23.125 35.926 23.125ZM29.0417 12.1406H25.625V9.25C25.625 8.61139 25.1151 8.09375 24.4861 8.09375H23.3472C22.7182 8.09375 22.2083 8.61139 22.2083 9.25V12.1406H18.7917C18.1626 12.1406 17.6528 12.6583 17.6528 13.2969V14.4531C17.6528 15.0917 18.1626 15.6094 18.7917 15.6094H22.2083V18.5C22.2083 19.1386 22.7182 19.6562 23.3472 19.6562H24.4861C25.1151 19.6562 25.625 19.1386 25.625 18.5V15.6094H29.0417C29.6707 15.6094 30.1806 15.0917 30.1806 14.4531V13.2969C30.1806 12.6583 29.6707 12.1406 29.0417 12.1406Z" fill="black"/>
</svg>
