<svg width="69" height="69" viewBox="0 0 69 69" fill="none" xmlns="http://www.w3.org/2000/svg">
<path d="M34.5 0C15.4462 0 0 15.4462 0 34.5C0 53.5538 15.4462 69 34.5 69C53.5538 69 69 53.5538 69 34.5C69 15.4462 53.5538 0 34.5 0ZM17.111 14.5757L23.2513 16.5046C24.0642 16.7715 24.6056 17.5264 24.7 18.2986L25.0453 21.6803L52.8492 24.7841C54.043 25.0154 54.882 26.0933 54.7148 27.2015L52.9881 36.9298C52.7684 37.9474 51.9256 38.6449 50.9877 38.6564H26.2877L25.8034 41.415H49.2611C50.4876 41.4581 51.3861 42.3922 51.4005 43.4828C51.3496 44.727 50.3468 45.5413 49.2611 45.5548H23.3187C22.0102 45.4466 21.0496 44.4097 21.2508 43.1416L22.3542 37.0688L20.6276 20.0927L15.8686 18.5766C15.3166 18.3926 14.9023 18.0465 14.6263 17.5405C14.1041 16.4462 14.5918 15.2346 15.5233 14.7105C16.055 14.4341 16.5742 14.3997 17.111 14.5757ZM26.4604 46.7468C28.2467 46.7468 29.6948 48.1949 29.6948 49.9812C29.6948 51.7674 28.2467 53.2156 26.4604 53.2156C24.6742 53.2156 23.226 51.7674 23.226 49.9812C23.226 48.1949 24.6741 46.7468 26.4604 46.7468ZM45.4455 46.7468C47.2317 46.7468 48.6798 48.1949 48.6798 49.9812C48.6798 51.7674 47.2317 53.2156 45.4455 53.2156C43.6592 53.2156 42.2111 51.7674 42.2111 49.9812C42.2111 48.1949 43.6592 46.7468 45.4455 46.7468Z" fill="black"/>
</svg>
