<svg width="49" height="50" viewBox="0 0 49 50" fill="none" xmlns="http://www.w3.org/2000/svg">
<g clip-path="url(#clip0_97_83)">
<path d="M48.9793 38.526C49.1651 38.024 27.837 21.9196 27.837 21.9196C25.1669 19.9492 23.7625 19.9182 21.1221 21.9196C21.1221 21.9196 -0.174944 38.011 0.00430822 38.5061L1.58056e-06 38.5097C0.00220275 38.514 0.00574377 38.517 0.00871057 38.5209C0.189296 39.0132 0.452022 39.4713 0.785724 39.8758C0.926695 40.0467 1.09657 40.1899 1.25993 40.3387L1.25199 40.3448C1.26501 40.3564 1.28233 40.3617 1.29534 40.3733C1.98776 40.991 2.86095 41.391 3.831 41.5052C3.84621 41.507 3.85846 41.515 3.87368 41.5168L3.93225 41.5168C4.07973 41.5308 4.21994 41.5663 4.37095 41.5663L44.6353 41.5663C46.6179 41.5663 48.2977 40.3194 48.965 38.5716C48.9729 38.5586 48.9852 38.5492 48.9924 38.5358L48.9793 38.526Z" fill="#96A9B2"/>
<path d="M24.5089 20.0717L0.112551 38.369L0.112549 12.4479C0.112549 9.92129 2.16031 7.87353 4.68687 7.87353L44.3309 7.87353C46.8575 7.87353 48.9053 9.92129 48.9053 12.4479L48.9053 38.369L24.5089 20.0717Z" fill="#B9C5C6"/>
<path d="M0.396973 10.8573L21.2263 27.2176C23.8552 29.1576 25.238 29.1883 27.8377 27.2176L48.6343 10.8832C48.2735 10.2292 47.7334 9.71249 47.1156 9.30048L47.4017 9.07635C46.7035 8.44078 45.8111 8.02878 44.8204 7.92236L4.19878 7.9238C3.21093 8.02879 2.31706 8.44222 1.62035 9.07635L1.9043 9.29771C1.29371 9.70397 0.758539 10.2118 0.396973 10.8573Z" fill="#EDECE6"/>
<path d="M0.390266 10.8914C0.207377 11.3858 21.2068 27.2418 21.2068 27.2418C23.8358 29.1818 25.2185 29.2125 27.8183 27.2418C27.8183 27.2418 48.7871 11.3986 48.6106 10.9111L48.6149 10.9075C48.6128 10.9032 48.6092 10.9004 48.6064 10.8965C48.4286 10.4118 48.1699 9.96075 47.8413 9.56251C47.7025 9.39417 47.5353 9.25329 47.3745 9.10668L47.3823 9.10065C47.3695 9.08926 47.3525 9.0839 47.3396 9.07251C46.6578 8.46441 45.7981 8.0705 44.8431 7.95805C44.8282 7.95623 44.816 7.94848 44.8011 7.94666L44.7435 7.94666C44.5983 7.93278 44.4602 7.89795 44.3115 7.89795L4.66743 7.89795C2.71528 7.89795 1.06134 9.12563 0.404526 10.8465C0.396678 10.8593 0.384619 10.8686 0.377442 10.8817L0.390266 10.8914Z" fill="#DCE2E2"/>
<path d="M27.8842 12.6516L24.187 12.6516C24.0307 12.6516 23.8809 12.7136 23.7704 12.8241C23.66 12.9346 23.5979 13.0844 23.5979 13.2406L23.5979 15.3195C23.5979 15.4757 23.66 15.6256 23.7704 15.736C23.8809 15.8465 24.0307 15.9086 24.187 15.9086L27.1935 15.9086C27.3497 15.9086 27.4995 15.9706 27.61 16.0811C27.7205 16.1916 27.7825 16.3414 27.7825 16.4976L27.7825 17.6093C27.7825 17.7655 27.7205 17.9153 27.61 18.0258C27.4995 18.1363 27.3497 18.1983 27.1935 18.1983L24.187 18.1983C24.0307 18.1983 23.8809 18.2604 23.7704 18.3709C23.66 18.4813 23.5979 18.6312 23.5979 18.7874L23.5979 21.0439C23.5979 21.2001 23.66 21.3499 23.7704 21.4604C23.8809 21.5709 24.0307 21.6329 24.187 21.6329L28.141 21.6329C28.2973 21.6329 28.4471 21.695 28.5576 21.8055C28.668 21.9159 28.7301 22.0658 28.7301 22.222L28.7301 23.4126C28.7301 23.5689 28.668 23.7187 28.5576 23.8292C28.4471 23.9396 28.2973 24.0017 28.141 24.0017L20.8906 24.0017C20.7343 24.0017 20.5845 23.9396 20.474 23.8292C20.3636 23.7187 20.3015 23.5689 20.3015 23.4126L20.3015 10.9113C20.3015 10.7551 20.3636 10.6053 20.474 10.4948C20.5845 10.3843 20.7343 10.3223 20.8906 10.3223L28.0501 10.3223C28.4089 10.3223 28.6843 10.6402 28.6331 10.9953L28.4673 12.1465C28.4471 12.2867 28.377 12.415 28.2699 12.5077C28.1628 12.6005 28.0259 12.6516 27.8842 12.6516Z" fill="#597B91"/>
</g>
<defs>
<clipPath id="clip0_97_83">
<rect width="49" height="49" fill="white" transform="translate(49 49.7466) rotate(180)"/>
</clipPath>
</defs>
</svg>
