<svg width="480" height="191" viewBox="0 0 480 191" fill="none" xmlns="http://www.w3.org/2000/svg">
<g clip-path="url(#clip0_101_19)">
<path d="M171.005 47.7499C143.656 34.2665 116.304 20.7712 88.9642 7.28778C87.102 6.37158 85.1383 5.10024 82.9656 5.75382C81.6256 6.16268 80.3095 7.13857 79.1098 7.819C72.8128 11.4122 66.5068 14.9964 60.2068 18.5956C43.5062 28.1307 26.8027 37.6568 10.0872 47.1919C7.93247 48.4274 5.7688 49.648 3.60811 50.8835C2.97277 51.0809 2.39093 51.4208 1.90702 51.8773C-0.468547 53.4501 -0.474515 56.1271 0.761016 58.0789C1.11019 58.7712 1.6623 59.4069 2.4263 59.9322L80.2886 112.502C82.1061 113.726 83.9266 114.958 85.7381 116.188C87.0363 117.056 89.3134 116.996 90.5698 116.071C115.671 97.3652 140.788 78.6531 165.895 59.9381C167.665 58.628 169.426 57.3178 171.181 56.0077C173.888 53.9992 174.464 49.4689 170.999 47.7499" fill="#D07929"/>
<path d="M92.3216 111.287C91.7218 109.297 89.6715 108.213 88.054 107.106C61.5885 89.0508 35.1231 71.0251 8.65767 52.9398C8.37147 52.5094 7.99702 52.1447 7.55917 51.8699C7.12132 51.5952 6.63006 51.4166 6.11797 51.3462C3.60811 50.2987 1.37281 51.9968 0.564046 54.2917C0.098062 55.2623 -0.0361526 56.3591 0.182046 57.4134C2.87097 71.9145 5.5778 86.4275 8.27269 100.932L13.0805 126.776C13.743 130.295 13.7669 133.413 16.7364 135.729L86.1529 189.896C89.3044 192.352 94.3331 190.815 94.2287 186.332L93.1811 141.209C92.9901 132.921 92.7902 124.639 92.6111 116.349C92.5723 114.743 92.7812 112.809 92.3216 111.257" fill="#F6921E"/>
<path d="M2.82322 71.1445C3.77822 70.6222 4.91527 70.4581 6.11797 70.9594C7.11774 71.1236 8.03991 71.6309 8.65768 72.5561L88.054 126.723C89.6715 127.83 91.7218 128.91 92.3216 130.901C92.7812 132.461 92.5723 134.383 92.6141 135.989C92.7962 144.28 92.9931 152.57 93.1841 160.861L93.8049 187.869C94.0675 187.275 94.2466 186.622 94.2316 185.84L93.1841 140.716C92.9931 132.429 92.7932 124.135 92.6141 115.844C92.5723 114.248 92.7842 112.314 92.3216 110.756C91.7218 108.771 89.6715 107.682 88.054 106.578C61.5885 88.5225 35.1231 70.4969 8.65768 52.4116C8.36967 51.9825 7.9948 51.6187 7.55731 51.3436C7.11983 51.0686 6.62947 50.8885 6.11797 50.8149C3.60811 49.7734 1.37282 51.4745 0.56405 53.7665C0.0980807 54.736 -0.0361467 55.8318 0.18205 56.8851C1.05349 61.6392 1.93686 66.3904 2.82322 71.1445" fill="#9A5524"/>
<path d="M166.379 48.1678C141.77 66.3844 117.164 84.613 92.5485 102.833C90.9011 104.044 89.2537 105.271 87.6183 106.485C87.4482 106.608 87.3198 106.724 87.1825 106.841C86.0992 107.625 85.3651 108.9 85.4009 110.676C85.9948 135.95 86.5767 161.24 87.1646 186.517C87.2691 191 92.2351 192.304 95.1807 189.708C116.82 170.682 138.472 151.657 160.13 132.646C162.562 130.504 162.401 124.717 162.848 121.78C164.227 112.842 165.588 103.907 166.958 94.9688C169.089 81.1063 171.214 67.2678 173.333 53.4143C173.911 49.66 170.008 45.4938 166.379 48.1827" fill="#D07929"/>
<path d="M87.1736 125.281C87.3109 125.177 87.4452 125.06 87.6093 124.944C89.2388 123.777 90.8921 122.592 92.5395 121.437C117.149 103.889 141.761 86.3469 166.376 68.8197C167.946 67.6916 169.566 67.8587 170.852 68.6555C171.673 63.5045 172.5 58.3385 173.315 53.1815C173.903 49.5734 169.999 45.5624 166.376 48.1409C141.761 65.6771 117.149 83.2223 92.5395 100.758C90.8921 101.931 89.2388 103.104 87.6093 104.271C87.4452 104.387 87.3109 104.504 87.1736 104.614C86.0962 105.369 85.3621 106.599 85.3979 108.303C85.5501 114.49 85.6963 120.682 85.8455 126.878C86.1619 126.221 86.6095 125.675 87.1736 125.281Z" fill="#9A5524"/>
<path d="M111.935 18.6344L28.5784 66.0143L55.4378 84.3384L133.27 29.1633L111.935 18.6344Z" fill="#BE202E"/>
<path d="M57.9775 19.8849L142.107 65.4414L111.726 87.0841L37.9941 31.2971L57.9775 19.8849Z" fill="#BE202E"/>
<path d="M55.4527 84.3385L59.1085 168.826L34.9112 149.935L28.5784 66.0144M111.714 87.0841V175.183L139.296 150.953L142.095 65.4414" fill="#CC2F42"/>
<path d="M77.7728 17.9957C67.235 26.734 61.5318 42.5631 60.2277 54.3335C58.831 66.8917 58.5743 80.0438 50.7045 90.707C49.5764 92.238 50.5762 93.1811 52.1609 92.2201C56.73 89.4208 60.6604 86.0663 64.2984 82.2553C66.6202 86.9706 65.8532 92.5543 65.328 97.7054C65.0832 100.045 68.569 97.1533 69.0823 96.6191C79.7664 84.9233 76.2597 70.5088 79.1247 55.9838C86.714 17.5361 85.2248 11.824 77.7728 17.9957Z" fill="#CC2F42"/>
<path d="M92.8141 55.6705C99.5438 68.8525 100.081 83.6789 113.567 92.0112C114.185 92.3843 118.342 94.2167 117.471 92.0351C115.576 87.2213 113.296 82.0613 114.251 76.8984C118.781 79.5813 123.479 81.736 128.653 83.1745C130.447 83.6639 131.121 82.5 129.617 81.3242C119.151 73.2067 115.307 60.6335 110.544 48.9318C106.062 37.9582 96.27 24.2719 83.7416 18.7598C74.8869 14.8532 75.0272 20.7503 92.8141 55.6675" fill="#CC2F42"/>
<path d="M42.1394 10.4005C53.474 8.8188 79.2829 13.4565 80.6677 23.3945C82.0464 33.3265 58.4818 44.8193 47.1561 46.401C35.8274 47.9738 29.0081 40.6949 27.6264 30.7629C26.2297 20.816 30.8167 11.9733 42.1394 10.4005M114.212 0.376005C102.871 1.96369 79.3098 13.4565 80.6975 23.3945C82.0763 33.3265 107.897 37.9553 119.202 36.3885C130.554 34.8067 135.118 25.9551 133.733 16.0171C132.357 6.05826 125.544 -1.19378 114.212 0.376005Z" fill="#CC2F42"/>
<path d="M101.275 18.4285C101.529 20.2573 101.42 22.1183 100.955 23.9051C100.489 25.6918 99.6761 27.3693 98.5619 28.8416C97.4477 30.3139 96.0542 31.5522 94.4612 32.4856C92.8681 33.419 91.1067 34.0293 89.2776 34.2815L75.3853 36.2184C71.6942 36.7349 67.9492 35.7643 64.9735 33.5201C61.9979 31.276 60.0353 27.9419 59.5174 24.251C59.008 20.5569 59.9851 16.8115 62.2344 13.837C64.4837 10.8626 67.8213 8.90217 71.5146 8.3861L85.4277 6.44924C89.1213 5.94147 92.8655 6.91936 95.8391 9.16843C98.8127 11.4175 100.773 14.7541 101.29 18.4464" fill="#EF556C"/>
</g>
<path d="M245.624 101.652C245.624 103.572 245.528 105.524 245.336 107.508C245.144 109.428 244.76 111.316 244.184 113.172C243.608 114.964 242.744 116.692 241.592 118.356C240.44 119.956 238.872 121.364 236.888 122.58C235.928 123.22 234.776 123.764 233.432 124.212C232.152 124.596 230.776 124.916 229.304 125.172C227.896 125.492 226.488 125.684 225.08 125.748C223.672 125.876 222.36 125.908 221.144 125.844C215.384 125.652 210.712 124.276 207.128 121.716C203.608 119.092 200.888 115.86 198.968 112.02C197.112 108.18 195.896 104.02 195.32 99.54C194.808 94.996 194.712 90.676 195.032 86.58C195.224 84.148 195.64 81.524 196.28 78.708C196.984 75.892 197.976 73.172 199.256 70.548C200.6 67.924 202.232 65.556 204.152 63.444C206.136 61.332 208.472 59.732 211.16 58.644C213.656 57.62 216.376 56.98 219.32 56.724C222.328 56.404 225.272 56.5 228.152 57.012C231.096 57.524 233.816 58.452 236.312 59.796C238.872 61.14 240.888 62.932 242.36 65.172C243.384 66.836 244.184 68.852 244.76 71.22C245.336 73.588 245.432 75.86 245.048 78.036C244.728 79.956 244.056 81.3 243.032 82.068C242.008 82.772 240.888 83.06 239.672 82.932C238.456 82.74 237.272 82.228 236.12 81.396C235.032 80.5 234.296 79.38 233.912 78.036C233.464 76.564 232.92 75.22 232.28 74.004C231.64 72.724 230.648 71.668 229.304 70.836C227.768 69.876 226.136 69.332 224.408 69.204C222.744 69.076 221.112 69.268 219.512 69.78C217.976 70.292 216.504 71.092 215.096 72.18C213.752 73.268 212.632 74.516 211.736 75.924C210.648 77.524 209.816 79.284 209.24 81.204C208.664 83.06 208.248 85.012 207.992 87.06C207.736 89.044 207.64 91.06 207.704 93.108C207.832 95.092 208.088 97.012 208.472 98.868C209.176 102.004 210.264 104.948 211.736 107.7C212.312 108.724 213.08 109.652 214.04 110.484C215.064 111.252 216.184 111.892 217.4 112.404C218.616 112.852 219.896 113.14 221.24 113.268C222.584 113.396 223.864 113.3 225.08 112.98C226.808 112.532 228.216 111.956 229.304 111.252C230.392 110.484 231.256 109.588 231.896 108.564C232.536 107.54 232.952 106.42 233.144 105.204C233.4 103.988 233.528 102.708 233.528 101.364V101.268C232.696 101.268 231.96 101.268 231.32 101.268C230.68 101.204 230.2 101.172 229.88 101.172C228.472 101.172 227.096 100.916 225.752 100.404C224.6 100.02 223.736 99.412 223.16 98.58C222.52 97.876 222.2 97.012 222.2 95.988C222.2 95.604 222.2 95.252 222.2 94.932C222.264 94.548 222.328 94.164 222.392 93.78C222.584 93.268 223 92.628 223.64 91.86C224.024 91.54 224.632 91.284 225.464 91.092C225.848 90.964 226.232 90.868 226.616 90.804C227 90.676 227.448 90.58 227.96 90.516C228.344 90.452 228.76 90.42 229.208 90.42C229.656 90.42 230.104 90.42 230.552 90.42H239.288C239.992 90.356 240.792 90.452 241.688 90.708C242.648 90.9 243.384 91.22 243.896 91.668C244.088 91.924 244.28 92.18 244.472 92.436C244.664 92.692 244.824 92.98 244.952 93.3C245.208 94.004 245.368 94.708 245.432 95.412C245.496 95.796 245.528 96.212 245.528 96.66C245.592 97.044 245.624 97.396 245.624 97.716V101.652ZM256.316 114.324L256.412 106.74L256.508 92.628C256.572 90.58 256.604 88.468 256.604 86.292C256.604 84.116 256.604 81.876 256.604 79.572C256.604 77.268 256.604 75.22 256.604 73.428C256.604 71.636 256.668 69.62 256.796 67.38V66.996C256.86 66.356 256.892 65.716 256.892 65.076C256.956 64.372 256.988 63.668 256.988 62.964C257.052 61.812 257.404 60.564 258.044 59.22C258.492 58.324 259.164 57.556 260.06 56.916C261.084 56.404 262.076 56.148 263.036 56.148C263.548 56.148 263.996 56.18 264.38 56.244C264.828 56.244 265.244 56.276 265.628 56.34C266.46 56.468 267.196 56.852 267.836 57.492C268.22 57.812 268.572 58.324 268.892 59.028C269.02 59.412 269.116 59.796 269.18 60.18C269.308 60.5 269.404 60.852 269.468 61.236C269.532 61.684 269.564 62.1 269.564 62.484C269.628 62.868 269.66 63.252 269.66 63.636C269.66 64.084 269.628 64.5 269.564 64.884C269.564 65.204 269.564 65.556 269.564 65.94V67.572L268.988 117.396V118.356C268.988 118.548 268.956 118.804 268.892 119.124C268.892 119.38 268.86 119.7 268.796 120.084C268.668 120.404 268.54 120.756 268.412 121.14C268.348 121.46 268.252 121.812 268.124 122.196C267.932 122.516 267.708 122.836 267.452 123.156C267.26 123.412 267.004 123.668 266.684 123.924C266.172 124.436 265.34 124.788 264.188 124.98C262.46 125.364 260.828 125.204 259.292 124.5C258.524 123.988 257.98 123.348 257.66 122.58C257.468 122.388 257.372 122.196 257.372 122.004C257.308 121.876 257.244 121.78 257.18 121.716C257.116 121.652 257.052 121.556 256.988 121.428C256.86 121.108 256.764 120.788 256.7 120.468C256.636 120.084 256.604 119.7 256.604 119.316C256.54 118.996 256.476 118.676 256.412 118.356C256.412 118.036 256.38 117.716 256.316 117.396C256.252 116.884 256.252 116.34 256.316 115.764V114.324ZM325.078 59.412C325.654 60.18 326.006 61.076 326.134 62.1C326.134 62.484 326.102 62.868 326.038 63.252C326.038 63.572 326.006 63.892 325.942 64.212C325.878 64.916 325.462 65.588 324.694 66.228C324.246 66.548 323.67 66.868 322.966 67.188C322.582 67.316 322.166 67.412 321.718 67.476C321.334 67.476 320.886 67.508 320.374 67.572C319.99 67.7 319.574 67.764 319.126 67.764C318.678 67.764 318.23 67.764 317.782 67.764H313.462L293.398 67.86V68.148L293.302 83.796C293.814 83.796 294.358 83.796 294.934 83.796C295.574 83.796 296.342 83.764 297.238 83.7C299.798 83.7 302.07 83.7 304.054 83.7C306.102 83.7 308.342 83.732 310.774 83.796H311.35C312.054 83.796 312.758 83.828 313.462 83.892C314.23 83.892 314.998 83.892 315.766 83.892C316.47 83.956 317.174 84.052 317.878 84.18C318.582 84.244 319.286 84.404 319.99 84.66C321.142 85.044 321.974 85.652 322.486 86.484C323.19 87.316 323.542 88.18 323.542 89.076C323.542 89.46 323.542 89.844 323.542 90.228C323.542 90.548 323.478 90.9 323.35 91.284C323.286 91.796 322.87 92.436 322.102 93.204C321.59 93.652 320.982 93.94 320.278 94.068C319.958 94.196 319.574 94.324 319.126 94.452C318.742 94.516 318.326 94.58 317.878 94.644C317.43 94.708 316.982 94.772 316.534 94.836C316.15 94.836 315.702 94.836 315.19 94.836H310.774L293.11 94.932L292.822 117.204V117.972C292.822 118.292 292.79 118.612 292.726 118.932C292.726 119.188 292.694 119.476 292.63 119.796C292.502 120.116 292.374 120.468 292.246 120.852C292.182 121.172 292.086 121.492 291.958 121.812C291.51 122.708 291.094 123.316 290.71 123.636C290.006 124.148 289.142 124.5 288.118 124.692C286.39 125.076 284.758 124.884 283.222 124.116C282.902 123.924 282.582 123.7 282.262 123.444C282.006 123.124 281.782 122.74 281.59 122.292C281.462 122.036 281.398 121.844 281.398 121.716L281.11 121.14C280.918 120.82 280.79 120.5 280.726 120.18C280.662 119.796 280.598 119.444 280.534 119.124C280.534 118.804 280.502 118.484 280.438 118.164C280.438 117.844 280.406 117.524 280.342 117.204C280.278 116.692 280.278 116.18 280.342 115.668V114.132L280.438 106.644L280.534 92.82C280.598 90.772 280.63 88.692 280.63 86.58C280.63 84.468 280.63 82.292 280.63 80.052C280.566 77.748 280.534 75.7 280.534 73.908C280.598 72.116 280.694 70.164 280.822 68.052V67.572C280.886 66.868 280.918 66.228 280.918 65.652C280.918 65.012 280.982 64.372 281.11 63.732C281.238 62.324 281.558 61.076 282.07 59.988C282.518 58.9 283.158 58.132 283.99 57.684C284.95 57.108 285.974 56.82 287.062 56.82C287.574 56.82 287.99 56.852 288.31 56.916V56.82C289.462 56.82 290.39 56.82 291.094 56.82C291.798 56.82 292.47 56.82 293.11 56.82C293.75 56.82 294.454 56.82 295.222 56.82C295.99 56.756 297.014 56.724 298.294 56.724C303.414 56.66 308.47 56.66 313.462 56.724H313.942C314.646 56.788 315.35 56.82 316.054 56.82C316.822 56.82 317.59 56.852 318.358 56.916C319.062 56.916 319.766 57.012 320.47 57.204C321.174 57.332 321.878 57.524 322.582 57.78C323.67 58.1 324.502 58.644 325.078 59.412ZM385.457 59.508C386.161 60.34 386.513 61.204 386.513 62.1C386.513 62.484 386.481 62.9 386.417 63.348C386.417 63.732 386.385 64.084 386.321 64.404C386.129 65.108 385.713 65.78 385.073 66.42C384.561 66.804 383.857 67.092 382.961 67.284C382.513 67.412 382.065 67.508 381.617 67.572C381.169 67.636 380.689 67.732 380.177 67.86C379.729 67.924 379.281 67.956 378.833 67.956C378.385 67.956 377.905 67.956 377.393 67.956H372.497C371.345 68.02 370.193 68.052 369.041 68.052C367.953 68.052 366.865 68.052 365.777 68.052C365.841 70.036 365.873 72.18 365.873 74.484C365.873 76.724 365.841 79.348 365.777 82.356C365.777 85.364 365.745 88.852 365.681 92.82C365.681 96.788 365.681 101.396 365.681 106.644V113.94C365.681 114.58 365.713 115.06 365.777 115.38C365.777 115.636 365.777 115.892 365.777 116.148C365.777 116.34 365.745 116.596 365.681 116.916C365.553 117.492 365.457 118.164 365.393 118.932C365.393 119.252 365.361 119.572 365.297 119.892C365.233 120.148 365.137 120.436 365.009 120.756C364.753 121.012 364.625 121.204 364.625 121.332L364.337 121.908C364.017 122.548 363.409 123.156 362.513 123.732C361.105 124.436 359.537 124.596 357.809 124.212C356.721 124.084 355.889 123.796 355.313 123.348C354.737 122.772 354.321 122.196 354.065 121.62C353.681 120.916 353.457 120.244 353.393 119.604C353.201 119.028 353.105 118.42 353.105 117.78V68.436C352.721 68.436 351.921 68.436 350.705 68.436C349.489 68.436 348.177 68.436 346.769 68.436C345.425 68.372 344.145 68.308 342.929 68.244C341.713 68.18 340.881 68.116 340.433 68.052C340.049 67.988 339.441 67.892 338.609 67.764C337.841 67.636 337.201 67.508 336.689 67.38C335.345 66.996 334.289 66.388 333.521 65.556C332.817 64.724 332.465 63.796 332.465 62.772C332.465 62.388 332.465 62.004 332.465 61.62C332.465 61.236 332.529 60.884 332.657 60.564C332.849 59.796 333.361 59.156 334.193 58.644C334.449 58.452 334.833 58.228 335.345 57.972C335.921 57.652 336.465 57.428 336.977 57.3C337.745 57.044 338.705 56.852 339.857 56.724C340.369 56.66 340.881 56.628 341.393 56.628C341.905 56.628 342.449 56.628 343.025 56.628C345.265 56.628 347.377 56.628 349.361 56.628C351.409 56.628 353.553 56.596 355.793 56.532C359.505 56.468 363.185 56.468 366.833 56.532C370.545 56.532 374.225 56.596 377.873 56.724C378.705 56.788 379.505 56.884 380.273 57.012C381.041 57.14 381.809 57.364 382.577 57.684C383.153 57.876 383.697 58.132 384.209 58.452C384.721 58.708 385.137 59.06 385.457 59.508ZM445.801 60.66C445.865 60.98 445.865 61.3 445.801 61.62C445.801 61.94 445.705 62.292 445.513 62.676C445.257 63.572 444.969 64.372 444.649 65.076C444.265 65.972 443.785 66.74 443.208 67.38C442.953 67.764 442.697 68.148 442.441 68.532C442.249 68.852 442.057 69.172 441.865 69.492L440.617 71.124L428.329 88.884L426.121 91.668V117.204C425.993 117.524 425.929 117.844 425.929 118.164C425.929 118.484 425.897 118.836 425.833 119.22C425.705 119.54 425.609 119.86 425.545 120.18C425.481 120.436 425.385 120.724 425.257 121.044C425.129 121.3 425.065 121.492 425.065 121.62C425.001 121.748 424.937 121.844 424.873 121.908C424.873 121.972 424.841 122.068 424.777 122.196C424.393 122.836 423.849 123.412 423.145 123.924C421.737 124.628 420.137 124.788 418.345 124.404C417.321 124.276 416.553 123.956 416.041 123.444C415.721 123.252 415.465 123.028 415.273 122.772C415.081 122.516 414.889 122.228 414.697 121.908C414.569 121.524 414.441 121.172 414.312 120.852C414.185 120.532 414.089 120.212 414.025 119.892C413.897 119.572 413.833 119.284 413.833 119.028C413.833 118.708 413.833 118.42 413.833 118.164V91.956L411.721 88.692L399.241 71.028L398.185 69.3C397.801 68.724 397.321 68.052 396.745 67.284C396.233 66.58 395.785 65.812 395.401 64.98C395.145 64.596 394.921 64.212 394.729 63.828C394.601 63.38 394.473 62.932 394.345 62.484C394.153 61.844 394.121 61.204 394.249 60.564C394.441 59.732 394.825 59.028 395.401 58.452C396.041 57.876 396.713 57.428 397.417 57.108C398.313 56.468 399.337 56.212 400.489 56.34C401.193 56.34 401.801 56.468 402.312 56.724C402.825 56.98 403.337 57.268 403.849 57.588C404.425 58.036 404.969 58.516 405.481 59.028C406.057 59.54 406.569 60.084 407.017 60.66C407.529 61.3 408.009 61.908 408.457 62.484C408.905 62.996 409.353 63.604 409.801 64.308L410.089 64.692C411.625 66.74 413.065 68.724 414.409 70.644C415.753 72.5 417.161 74.516 418.633 76.692C418.761 76.82 418.953 77.076 419.209 77.46C419.465 77.844 419.753 78.292 420.073 78.804C420.329 78.356 420.553 77.972 420.745 77.652C421.001 77.268 421.193 77.012 421.321 76.884C422.793 74.708 424.201 72.66 425.545 70.74C426.889 68.82 428.329 66.836 429.865 64.788L430.057 64.404C430.569 63.828 431.017 63.252 431.401 62.676C431.849 62.036 432.329 61.396 432.841 60.756C433.673 59.604 434.793 58.612 436.201 57.78C437.225 57.076 438.281 56.628 439.369 56.436C440.585 56.308 441.641 56.564 442.537 57.204C442.921 57.46 443.273 57.684 443.593 57.876C443.977 58.068 444.297 58.292 444.552 58.548C445.065 59.124 445.481 59.828 445.801 60.66Z" fill="black"/>
<defs>
<clipPath id="clip0_101_19">
<rect width="191" height="191" fill="white"/>
</clipPath>
</defs>
</svg>
