<svg width="584" height="584" viewBox="0 0 584 584" fill="none" xmlns="http://www.w3.org/2000/svg">
<path d="M584 292C584 453.267 453.267 584 292 584C130.733 584 0 453.267 0 292C0 130.733 130.733 0 292 0C453.267 0 584 130.733 584 292Z" fill="white"/>
<g clip-path="url(#clip0_105_4)">
<path d="M238.005 244.75C210.656 231.267 183.304 217.771 155.964 204.288C154.102 203.372 152.138 202.1 149.966 202.754C148.626 203.163 147.31 204.139 146.11 204.819C139.813 208.412 133.507 211.996 127.207 215.596C110.506 225.131 93.8027 234.657 77.0872 244.192C74.9325 245.427 72.7688 246.648 70.6081 247.884C69.9728 248.081 69.3909 248.421 68.907 248.877C66.5315 250.45 66.5255 253.127 67.761 255.079C68.1102 255.771 68.6623 256.407 69.4263 256.932L147.289 309.502C149.106 310.726 150.927 311.958 152.738 313.188C154.036 314.056 156.313 313.996 157.57 313.071C182.671 294.365 207.788 275.653 232.895 256.938C234.665 255.628 236.426 254.318 238.181 253.008C240.888 250.999 241.464 246.469 237.999 244.75" fill="#D07929"/>
<path d="M159.322 308.287C158.722 306.297 156.671 305.213 155.054 304.106C128.589 286.051 102.123 268.025 75.6576 249.94C75.3714 249.509 74.997 249.145 74.5591 248.87C74.1213 248.595 73.63 248.417 73.1179 248.346C70.6081 247.299 68.3728 248.997 67.564 251.292C67.098 252.262 66.9638 253.359 67.182 254.413C69.8709 268.914 72.5778 283.427 75.2727 297.932L80.0805 323.776C80.743 327.295 80.7669 330.413 83.7364 332.729L153.153 386.896C156.304 389.352 161.333 387.815 161.229 383.332L160.181 338.209C159.99 329.921 159.79 321.639 159.611 313.349C159.572 311.743 159.781 309.809 159.322 308.257" fill="#F6921E"/>
<path d="M69.8232 268.144C70.7782 267.622 71.9152 267.458 73.1179 267.959C74.1177 268.124 75.0399 268.631 75.6576 269.556L155.054 323.723C156.671 324.83 158.722 325.91 159.322 327.901C159.781 329.461 159.572 331.383 159.614 332.989C159.796 341.28 159.993 349.57 160.184 357.861L160.805 384.869C161.067 384.275 161.247 383.622 161.232 382.84L160.184 337.716C159.993 329.429 159.793 321.135 159.614 312.844C159.572 311.248 159.784 309.314 159.322 307.756C158.722 305.771 156.671 304.682 155.054 303.578C128.589 285.523 102.123 267.497 75.6576 249.412C75.3696 248.982 74.9948 248.619 74.5573 248.344C74.1198 248.069 73.6294 247.888 73.1179 247.815C70.6081 246.773 68.3728 248.474 67.564 250.766C67.0981 251.736 66.9638 252.832 67.182 253.885C68.0535 258.639 68.9368 263.39 69.8232 268.144Z" fill="#9A5524"/>
<path d="M233.379 245.168C208.77 263.384 184.164 281.613 159.548 299.833C157.901 301.044 156.254 302.271 154.618 303.485C154.448 303.608 154.32 303.724 154.183 303.841C153.099 304.625 152.365 305.9 152.401 307.676C152.995 332.95 153.577 358.24 154.165 383.517C154.269 388 159.235 389.304 162.181 386.708C183.82 367.682 205.472 348.657 227.13 329.646C229.562 327.504 229.401 321.717 229.848 318.78C231.227 309.842 232.588 300.907 233.958 291.969C236.089 278.106 238.214 264.268 240.333 250.414C240.912 246.66 237.008 242.494 233.379 245.183" fill="#D07929"/>
<path d="M154.174 322.281C154.311 322.177 154.445 322.06 154.609 321.944C156.239 320.777 157.892 319.592 159.539 318.437C184.149 300.889 208.761 283.347 233.376 265.82C234.946 264.692 236.566 264.859 237.852 265.656C238.673 260.504 239.5 255.339 240.315 250.182C240.902 246.573 236.999 242.562 233.376 245.141C208.761 262.677 184.149 280.222 159.539 297.758C157.892 298.931 156.239 300.104 154.609 301.271C154.445 301.387 154.311 301.504 154.174 301.614C153.096 302.369 152.362 303.599 152.398 305.303C152.55 311.49 152.696 317.682 152.846 323.878C153.162 323.221 153.61 322.675 154.174 322.281Z" fill="#9A5524"/>
<path d="M178.935 215.634L95.5784 263.014L122.438 281.338L200.27 226.163L178.935 215.634Z" fill="#BE202E"/>
<path d="M124.977 216.885L209.107 262.441L178.726 284.084L104.994 228.297L124.977 216.885Z" fill="#BE202E"/>
<path d="M122.453 281.338L126.109 365.826L101.911 346.935L95.5784 263.014M178.714 284.084V372.183L206.296 347.953L209.095 262.441" fill="#CC2F42"/>
<path d="M144.773 214.996C134.235 223.734 128.532 239.563 127.228 251.333C125.831 263.892 125.574 277.044 117.705 287.707C116.576 289.238 117.576 290.181 119.161 289.22C123.73 286.421 127.66 283.066 131.298 279.255C133.62 283.971 132.853 289.554 132.328 294.705C132.083 297.045 135.569 294.153 136.082 293.619C146.766 281.923 143.26 267.509 146.125 252.984C153.714 214.536 152.225 208.824 144.773 214.996Z" fill="#CC2F42"/>
<path d="M159.814 252.671C166.544 265.852 167.081 280.679 180.567 289.011C181.185 289.384 185.342 291.217 184.471 289.035C182.576 284.221 180.296 279.061 181.251 273.898C185.781 276.581 190.479 278.736 195.653 280.175C197.447 280.664 198.122 279.5 196.617 278.324C186.151 270.207 182.307 257.634 177.544 245.932C173.062 234.958 163.27 221.272 150.742 215.76C141.887 211.853 142.027 217.75 159.814 252.668" fill="#CC2F42"/>
<path d="M109.139 207.401C120.474 205.819 146.283 210.457 147.668 220.394C149.046 230.326 125.482 241.819 114.156 243.401C102.827 244.974 96.0081 237.695 94.6264 227.763C93.2297 217.816 97.8167 208.973 109.139 207.401ZM181.212 197.376C169.871 198.964 146.31 210.457 147.698 220.394C149.076 230.326 174.897 234.955 186.202 233.388C197.554 231.807 202.118 222.955 200.733 213.017C199.357 203.058 192.544 195.806 181.212 197.376Z" fill="#CC2F42"/>
<path d="M168.275 215.429C168.529 217.257 168.42 219.118 167.955 220.905C167.489 222.692 166.676 224.369 165.562 225.842C164.448 227.314 163.054 228.552 161.461 229.486C159.868 230.419 158.107 231.029 156.278 231.282L142.385 233.218C138.694 233.735 134.949 232.764 131.974 230.52C128.998 228.276 127.035 224.942 126.517 221.251C126.008 217.557 126.985 213.811 129.234 210.837C131.484 207.863 134.821 205.902 138.515 205.386L152.428 203.449C156.121 202.941 159.866 203.919 162.839 206.168C165.813 208.417 167.773 211.754 168.29 215.446" fill="#EF556C"/>
</g>
<path d="M312.624 298.652C312.624 300.572 312.528 302.524 312.336 304.508C312.144 306.428 311.76 308.316 311.184 310.172C310.608 311.964 309.744 313.692 308.592 315.356C307.44 316.956 305.872 318.364 303.888 319.58C302.928 320.22 301.776 320.764 300.432 321.212C299.152 321.596 297.776 321.916 296.304 322.172C294.896 322.492 293.488 322.684 292.08 322.748C290.672 322.876 289.36 322.908 288.144 322.844C282.384 322.652 277.712 321.276 274.128 318.716C270.608 316.092 267.888 312.86 265.968 309.02C264.112 305.18 262.896 301.02 262.32 296.54C261.808 291.996 261.712 287.676 262.032 283.58C262.224 281.148 262.64 278.524 263.28 275.708C263.984 272.892 264.976 270.172 266.256 267.548C267.6 264.924 269.232 262.556 271.152 260.444C273.136 258.332 275.472 256.732 278.16 255.644C280.656 254.62 283.376 253.98 286.32 253.724C289.328 253.404 292.272 253.5 295.152 254.012C298.096 254.524 300.816 255.452 303.312 256.796C305.872 258.14 307.888 259.932 309.36 262.172C310.384 263.836 311.184 265.852 311.76 268.22C312.336 270.588 312.432 272.86 312.048 275.036C311.728 276.956 311.056 278.3 310.032 279.068C309.008 279.772 307.888 280.06 306.672 279.932C305.456 279.74 304.272 279.228 303.12 278.396C302.032 277.5 301.296 276.38 300.912 275.036C300.464 273.564 299.92 272.22 299.28 271.004C298.64 269.724 297.648 268.668 296.304 267.836C294.768 266.876 293.136 266.332 291.408 266.204C289.744 266.076 288.112 266.268 286.512 266.78C284.976 267.292 283.504 268.092 282.096 269.18C280.752 270.268 279.632 271.516 278.736 272.924C277.648 274.524 276.816 276.284 276.24 278.204C275.664 280.06 275.248 282.012 274.992 284.06C274.736 286.044 274.64 288.06 274.704 290.108C274.832 292.092 275.088 294.012 275.472 295.868C276.176 299.004 277.264 301.948 278.736 304.7C279.312 305.724 280.08 306.652 281.04 307.484C282.064 308.252 283.184 308.892 284.4 309.404C285.616 309.852 286.896 310.14 288.24 310.268C289.584 310.396 290.864 310.3 292.08 309.98C293.808 309.532 295.216 308.956 296.304 308.252C297.392 307.484 298.256 306.588 298.896 305.564C299.536 304.54 299.952 303.42 300.144 302.204C300.4 300.988 300.528 299.708 300.528 298.364V298.268C299.696 298.268 298.96 298.268 298.32 298.268C297.68 298.204 297.2 298.172 296.88 298.172C295.472 298.172 294.096 297.916 292.752 297.404C291.6 297.02 290.736 296.412 290.16 295.58C289.52 294.876 289.2 294.012 289.2 292.988C289.2 292.604 289.2 292.252 289.2 291.932C289.264 291.548 289.328 291.164 289.392 290.78C289.584 290.268 290 289.628 290.64 288.86C291.024 288.54 291.632 288.284 292.464 288.092C292.848 287.964 293.232 287.868 293.616 287.804C294 287.676 294.448 287.58 294.96 287.516C295.344 287.452 295.76 287.42 296.208 287.42C296.656 287.42 297.104 287.42 297.552 287.42H306.288C306.992 287.356 307.792 287.452 308.688 287.708C309.648 287.9 310.384 288.22 310.896 288.668C311.088 288.924 311.28 289.18 311.472 289.436C311.664 289.692 311.824 289.98 311.952 290.3C312.208 291.004 312.368 291.708 312.432 292.412C312.496 292.796 312.528 293.212 312.528 293.66C312.592 294.044 312.624 294.396 312.624 294.716V298.652ZM323.316 311.324L323.412 303.74L323.508 289.628C323.572 287.58 323.604 285.468 323.604 283.292C323.604 281.116 323.604 278.876 323.604 276.572C323.604 274.268 323.604 272.22 323.604 270.428C323.604 268.636 323.668 266.62 323.796 264.38V263.996C323.86 263.356 323.892 262.716 323.892 262.076C323.956 261.372 323.988 260.668 323.988 259.964C324.052 258.812 324.404 257.564 325.044 256.22C325.492 255.324 326.164 254.556 327.06 253.916C328.084 253.404 329.076 253.148 330.036 253.148C330.548 253.148 330.996 253.18 331.38 253.244C331.828 253.244 332.244 253.276 332.628 253.34C333.46 253.468 334.196 253.852 334.836 254.492C335.22 254.812 335.572 255.324 335.892 256.028C336.02 256.412 336.116 256.796 336.18 257.18C336.308 257.5 336.404 257.852 336.468 258.236C336.532 258.684 336.564 259.1 336.564 259.484C336.628 259.868 336.66 260.252 336.66 260.636C336.66 261.084 336.628 261.5 336.564 261.884C336.564 262.204 336.564 262.556 336.564 262.94V264.572L335.988 314.396V315.356C335.988 315.548 335.956 315.804 335.892 316.124C335.892 316.38 335.86 316.7 335.796 317.084C335.668 317.404 335.54 317.756 335.412 318.14C335.348 318.46 335.252 318.812 335.124 319.196C334.932 319.516 334.708 319.836 334.452 320.156C334.26 320.412 334.004 320.668 333.684 320.924C333.172 321.436 332.34 321.788 331.188 321.98C329.46 322.364 327.828 322.204 326.292 321.5C325.524 320.988 324.98 320.348 324.66 319.58C324.468 319.388 324.372 319.196 324.372 319.004C324.308 318.876 324.244 318.78 324.18 318.716C324.116 318.652 324.052 318.556 323.988 318.428C323.86 318.108 323.764 317.788 323.7 317.468C323.636 317.084 323.604 316.7 323.604 316.316C323.54 315.996 323.476 315.676 323.412 315.356C323.412 315.036 323.38 314.716 323.316 314.396C323.252 313.884 323.252 313.34 323.316 312.764V311.324ZM392.078 256.412C392.654 257.18 393.006 258.076 393.134 259.1C393.134 259.484 393.102 259.868 393.038 260.252C393.038 260.572 393.006 260.892 392.942 261.212C392.878 261.916 392.462 262.588 391.694 263.228C391.246 263.548 390.67 263.868 389.966 264.188C389.582 264.316 389.166 264.412 388.718 264.476C388.334 264.476 387.886 264.508 387.374 264.572C386.99 264.7 386.574 264.764 386.126 264.764C385.678 264.764 385.23 264.764 384.782 264.764H380.462L360.398 264.86V265.148L360.302 280.796C360.814 280.796 361.358 280.796 361.934 280.796C362.574 280.796 363.342 280.764 364.238 280.7C366.798 280.7 369.07 280.7 371.054 280.7C373.102 280.7 375.342 280.732 377.774 280.796H378.35C379.054 280.796 379.758 280.828 380.462 280.892C381.23 280.892 381.998 280.892 382.766 280.892C383.47 280.956 384.174 281.052 384.878 281.18C385.582 281.244 386.286 281.404 386.99 281.66C388.142 282.044 388.974 282.652 389.486 283.484C390.19 284.316 390.542 285.18 390.542 286.076C390.542 286.46 390.542 286.844 390.542 287.228C390.542 287.548 390.478 287.9 390.35 288.284C390.286 288.796 389.87 289.436 389.102 290.204C388.59 290.652 387.982 290.94 387.278 291.068C386.958 291.196 386.574 291.324 386.126 291.452C385.742 291.516 385.326 291.58 384.878 291.644C384.43 291.708 383.982 291.772 383.534 291.836C383.15 291.836 382.702 291.836 382.19 291.836H377.774L360.11 291.932L359.822 314.204V314.972C359.822 315.292 359.79 315.612 359.726 315.932C359.726 316.188 359.694 316.476 359.63 316.796C359.502 317.116 359.374 317.468 359.246 317.852C359.182 318.172 359.086 318.492 358.958 318.812C358.51 319.708 358.094 320.316 357.71 320.636C357.006 321.148 356.142 321.5 355.118 321.692C353.39 322.076 351.758 321.884 350.222 321.116C349.902 320.924 349.582 320.7 349.262 320.444C349.006 320.124 348.782 319.74 348.59 319.292C348.462 319.036 348.398 318.844 348.398 318.716L348.11 318.14C347.918 317.82 347.79 317.5 347.726 317.18C347.662 316.796 347.598 316.444 347.534 316.124C347.534 315.804 347.502 315.484 347.438 315.164C347.438 314.844 347.406 314.524 347.342 314.204C347.278 313.692 347.278 313.18 347.342 312.668V311.132L347.438 303.644L347.534 289.82C347.598 287.772 347.63 285.692 347.63 283.58C347.63 281.468 347.63 279.292 347.63 277.052C347.566 274.748 347.534 272.7 347.534 270.908C347.598 269.116 347.694 267.164 347.822 265.052V264.572C347.886 263.868 347.918 263.228 347.918 262.652C347.918 262.012 347.982 261.372 348.11 260.732C348.238 259.324 348.558 258.076 349.07 256.988C349.518 255.9 350.158 255.132 350.99 254.684C351.95 254.108 352.974 253.82 354.062 253.82C354.574 253.82 354.99 253.852 355.31 253.916V253.82C356.462 253.82 357.39 253.82 358.094 253.82C358.798 253.82 359.47 253.82 360.11 253.82C360.75 253.82 361.454 253.82 362.222 253.82C362.99 253.756 364.014 253.724 365.294 253.724C370.414 253.66 375.47 253.66 380.462 253.724H380.942C381.646 253.788 382.35 253.82 383.054 253.82C383.822 253.82 384.59 253.852 385.358 253.916C386.062 253.916 386.766 254.012 387.47 254.204C388.174 254.332 388.878 254.524 389.582 254.78C390.67 255.1 391.502 255.644 392.078 256.412ZM452.457 256.508C453.161 257.34 453.513 258.204 453.513 259.1C453.513 259.484 453.481 259.9 453.417 260.348C453.417 260.732 453.385 261.084 453.321 261.404C453.129 262.108 452.713 262.78 452.073 263.42C451.561 263.804 450.857 264.092 449.961 264.284C449.513 264.412 449.065 264.508 448.617 264.572C448.169 264.636 447.689 264.732 447.177 264.86C446.729 264.924 446.281 264.956 445.833 264.956C445.385 264.956 444.905 264.956 444.393 264.956H439.497C438.345 265.02 437.193 265.052 436.041 265.052C434.953 265.052 433.865 265.052 432.777 265.052C432.841 267.036 432.873 269.18 432.873 271.484C432.873 273.724 432.841 276.348 432.777 279.356C432.777 282.364 432.745 285.852 432.681 289.82C432.681 293.788 432.681 298.396 432.681 303.644V310.94C432.681 311.58 432.713 312.06 432.777 312.38C432.777 312.636 432.777 312.892 432.777 313.148C432.777 313.34 432.745 313.596 432.681 313.916C432.553 314.492 432.457 315.164 432.393 315.932C432.393 316.252 432.361 316.572 432.297 316.892C432.233 317.148 432.137 317.436 432.009 317.756C431.753 318.012 431.625 318.204 431.625 318.332L431.337 318.908C431.017 319.548 430.409 320.156 429.513 320.732C428.105 321.436 426.537 321.596 424.809 321.212C423.721 321.084 422.889 320.796 422.313 320.348C421.737 319.772 421.321 319.196 421.065 318.62C420.681 317.916 420.457 317.244 420.393 316.604C420.201 316.028 420.105 315.42 420.105 314.78V265.436C419.721 265.436 418.921 265.436 417.705 265.436C416.489 265.436 415.177 265.436 413.769 265.436C412.425 265.372 411.145 265.308 409.929 265.244C408.713 265.18 407.881 265.116 407.433 265.052C407.049 264.988 406.441 264.892 405.609 264.764C404.841 264.636 404.201 264.508 403.689 264.38C402.345 263.996 401.289 263.388 400.521 262.556C399.817 261.724 399.465 260.796 399.465 259.772C399.465 259.388 399.465 259.004 399.465 258.62C399.465 258.236 399.529 257.884 399.657 257.564C399.849 256.796 400.361 256.156 401.193 255.644C401.449 255.452 401.833 255.228 402.345 254.972C402.921 254.652 403.465 254.428 403.977 254.3C404.745 254.044 405.705 253.852 406.857 253.724C407.369 253.66 407.881 253.628 408.393 253.628C408.905 253.628 409.449 253.628 410.025 253.628C412.265 253.628 414.377 253.628 416.361 253.628C418.409 253.628 420.553 253.596 422.793 253.532C426.505 253.468 430.185 253.468 433.833 253.532C437.545 253.532 441.225 253.596 444.873 253.724C445.705 253.788 446.505 253.884 447.273 254.012C448.041 254.14 448.809 254.364 449.577 254.684C450.153 254.876 450.697 255.132 451.209 255.452C451.721 255.708 452.137 256.06 452.457 256.508ZM512.801 257.66C512.865 257.98 512.865 258.3 512.801 258.62C512.801 258.94 512.705 259.292 512.513 259.676C512.257 260.572 511.969 261.372 511.649 262.076C511.265 262.972 510.785 263.74 510.208 264.38C509.953 264.764 509.697 265.148 509.441 265.532C509.249 265.852 509.057 266.172 508.865 266.492L507.617 268.124L495.329 285.884L493.121 288.668V314.204C492.993 314.524 492.929 314.844 492.929 315.164C492.929 315.484 492.897 315.836 492.833 316.22C492.705 316.54 492.609 316.86 492.545 317.18C492.481 317.436 492.385 317.724 492.257 318.044C492.129 318.3 492.065 318.492 492.065 318.62C492.001 318.748 491.937 318.844 491.873 318.908C491.873 318.972 491.841 319.068 491.777 319.196C491.393 319.836 490.849 320.412 490.145 320.924C488.737 321.628 487.137 321.788 485.345 321.404C484.321 321.276 483.553 320.956 483.041 320.444C482.721 320.252 482.465 320.028 482.273 319.772C482.081 319.516 481.889 319.228 481.697 318.908C481.569 318.524 481.441 318.172 481.312 317.852C481.185 317.532 481.089 317.212 481.025 316.892C480.897 316.572 480.833 316.284 480.833 316.028C480.833 315.708 480.833 315.42 480.833 315.164V288.956L478.721 285.692L466.241 268.028L465.185 266.3C464.801 265.724 464.321 265.052 463.745 264.284C463.233 263.58 462.785 262.812 462.401 261.98C462.145 261.596 461.921 261.212 461.729 260.828C461.601 260.38 461.473 259.932 461.345 259.484C461.153 258.844 461.121 258.204 461.249 257.564C461.441 256.732 461.825 256.028 462.401 255.452C463.041 254.876 463.713 254.428 464.417 254.108C465.313 253.468 466.337 253.212 467.489 253.34C468.193 253.34 468.801 253.468 469.312 253.724C469.825 253.98 470.337 254.268 470.849 254.588C471.425 255.036 471.969 255.516 472.481 256.028C473.057 256.54 473.569 257.084 474.017 257.66C474.529 258.3 475.009 258.908 475.457 259.484C475.905 259.996 476.353 260.604 476.801 261.308L477.089 261.692C478.625 263.74 480.065 265.724 481.409 267.644C482.753 269.5 484.161 271.516 485.633 273.692C485.761 273.82 485.953 274.076 486.209 274.46C486.465 274.844 486.753 275.292 487.073 275.804C487.329 275.356 487.553 274.972 487.745 274.652C488.001 274.268 488.193 274.012 488.321 273.884C489.793 271.708 491.201 269.66 492.545 267.74C493.889 265.82 495.329 263.836 496.865 261.788L497.057 261.404C497.569 260.828 498.017 260.252 498.401 259.676C498.849 259.036 499.329 258.396 499.841 257.756C500.673 256.604 501.793 255.612 503.201 254.78C504.225 254.076 505.281 253.628 506.369 253.436C507.585 253.308 508.641 253.564 509.537 254.204C509.921 254.46 510.273 254.684 510.593 254.876C510.977 255.068 511.297 255.292 511.552 255.548C512.065 256.124 512.481 256.828 512.801 257.66Z" fill="black"/>
<defs>
<clipPath id="clip0_105_4">
<rect width="191" height="191" fill="white" transform="translate(67 197)"/>
</clipPath>
</defs>
</svg>
