<svg width="52" height="52" viewBox="0 0 52 52" fill="none" xmlns="http://www.w3.org/2000/svg">
<path d="M47.8055 0.958852C48.1102 1.26852 48.3438 1.625 48.5063 2.00586C48.6586 2.38672 48.6586 2.80312 48.75 3.23984V13C48.75 14.7977 47.2977 16.25 45.5 16.25C43.7023 16.25 42.25 14.7977 42.25 13V11.1008L31.5453 21.7953C30.3469 23.0039 28.4273 23.075 27.1375 21.968L17.7836 14.0258L8.61453 21.968C7.25258 23.1359 5.2 22.9734 4.03203 21.6125C2.86406 20.2516 3.0225 18.2 4.38445 17.032L15.7625 7.28203C16.9812 6.23898 18.7688 6.23898 19.9875 7.28203L29.0773 15.0719L37.6492 6.5H35.75C33.9523 6.5 32.5 5.04461 32.5 3.25C32.5 1.45539 33.9523 0 35.75 0H45.4086C46.3937 0 47.2062 0.360953 47.7953 0.945039L47.8055 0.958852ZM0 30.875C0 28.1836 2.18258 26 4.875 26H47.125C49.8164 26 52 28.1836 52 30.875V47.125C52 49.8164 49.8164 52 47.125 52H4.875C2.18258 52 0 49.8164 0 47.125V30.875ZM4.875 47.125H9.75C9.75 44.4336 7.56742 42.25 4.875 42.25V47.125ZM4.875 30.875V35.75C7.56742 35.75 9.75 33.5664 9.75 30.875H4.875ZM47.125 42.25C44.4336 42.25 42.25 44.4336 42.25 47.125H47.125V42.25ZM42.25 30.875C42.25 33.5664 44.4336 35.75 47.125 35.75V30.875H42.25ZM26 32.5C22.4148 32.5 19.5 35.4148 19.5 39C19.5 42.5852 22.4148 45.5 26 45.5C29.5852 45.5 32.5 42.5852 32.5 39C32.5 35.4148 29.5852 32.5 26 32.5Z" fill="black"/>
</svg>
