<svg width="36" height="36" viewBox="0 0 36 36" fill="none" xmlns="http://www.w3.org/2000/svg">
<path d="M29.9999 16.4985H32.9999C32.9999 8.8035 27.1904 3 19.4849 3V6C25.5779 6 29.9999 10.4145 29.9999 16.4985Z" fill="black"/>
<path d="M19.4999 11.9999C22.6544 11.9999 23.9999 13.3454 23.9999 16.4999H26.9999C26.9999 11.6624 24.3374 8.99987 19.4999 8.99987V11.9999ZM24.6329 20.1644C24.3447 19.9024 23.966 19.7627 23.5766 19.7747C23.1873 19.7868 22.8179 19.9496 22.5464 20.2289L18.9569 23.9204C18.0929 23.7554 16.3559 23.2139 14.5679 21.4304C12.7799 19.6409 12.2384 17.8994 12.0779 17.0414L15.7664 13.4504C16.0461 13.1791 16.2091 12.8096 16.2212 12.4202C16.2332 12.0308 16.0933 11.6519 15.8309 11.3639L10.2884 5.26937C10.026 4.98041 9.66125 4.80513 9.27166 4.78076C8.88207 4.75639 8.49833 4.88486 8.20193 5.13887L4.94693 7.93037C4.6876 8.19064 4.53281 8.53705 4.51193 8.90387C4.48943 9.27887 4.06043 18.1619 10.9484 25.0529C16.9574 31.0604 24.4844 31.4999 26.5574 31.4999C26.8604 31.4999 27.0464 31.4909 27.0959 31.4879C27.4627 31.4673 27.8089 31.3119 28.0679 31.0514L30.8579 27.7949C31.1121 27.4987 31.2409 27.115 31.2168 26.7254C31.1927 26.3359 31.0177 25.971 30.7289 25.7084L24.6329 20.1644Z" fill="black"/>
</svg>
